# xmcd
#
# Track frame offsets: 
#        150
#        19204
#        33479
#        49704
#        64192
#        79335
#        94586
#        112754
#        133401
#        146564
#        165500
#        191532
#        204851
#        228920
#        245614
#
# Disc length: 3498 seconds
#
# Revision: 4
# Processed by: cddbd v1.5.1PL2 Copyright (c) Steve Scherf et al.
# Submitted via: ExactAudioCopy v0.90b4
#
DISCID=c70da80f
DTITLE=Various Artist - Anos 80 - Multishow (Ao Vivo)
DYEAR=2005
DGENRE=Rock
TTITLE0=Leo Jaime - As Sete Vampiras
TTITLE1=Kid Vinil - Sou Boy
TTITLE2=Kid Vinil - Tic Tic Nervoso
TTITLE3=Leoni and Leo Jaime - Exagerado
TTITLE4=Leoni and Leo Jaime - A Fórmula Do Amor
TTITLE5=Dulce Quental - Fui Eu
TTITLE6=Ritchie - Casanova
TTITLE7=Ritchie - Menina Veneno
TTITLE8=Nasi - Te Odeio (Isso É o Amor)
TTITLE9=Nasi - Núcleo Base
TTITLE10=Dinho Ouro Preto - Fogo
TTITLE11=Dinho Ouro Preto - Independência
TTITLE12=Leo Jaime - Rock Estrela
TTITLE13=Leo Jaime, Leoni, Nasi, Ritchie, Kid Vinil, Dinho Ouro Preto,
TTITLE13=Dulce Quental E Jorge Israel - Perdidos Na Selva
TTITLE14=Leo Jaime, Leoni, Nasi, Ritchie, Kid Vinil, Dinho Ouro Preto,
TTITLE14=Dulce Quental E Jorge Israel - Bete Balanço
EXTD=ID3G:  17 YEAR: 2005
EXTT0=
EXTT1=
EXTT2=
EXTT3=
EXTT4=
EXTT5=
EXTT6=
EXTT7=
EXTT8=
EXTT9=
EXTT10=
EXTT11=
EXTT12=
EXTT13=
EXTT14=
PLAYORDER=
